<svg width="86" height="86" viewBox="0 0 86 86" fill="none" xmlns="http://www.w3.org/2000/svg">
<circle cx="43" cy="43" r="43" fill="#EDEDED"/>
<path d="M23.07 65.7286C23.07 65.7286 19.0771 65.7286 19.0771 61.7357C19.0771 57.7429 23.07 45.7643 43.0343 45.7643C62.9986 45.7643 66.9914 57.7429 66.9914 61.7357C66.9914 65.7286 62.9986 65.7286 62.9986 65.7286H23.07ZM43.0343 41.7714C46.2112 41.7714 49.258 40.5094 51.5044 38.263C53.7508 36.0166 55.0129 32.9698 55.0129 29.7929C55.0129 26.6159 53.7508 23.5691 51.5044 21.3227C49.258 19.0763 46.2112 17.8143 43.0343 17.8143C39.8574 17.8143 36.8106 19.0763 34.5642 21.3227C32.3177 23.5691 31.0557 26.6159 31.0557 29.7929C31.0557 32.9698 32.3177 36.0166 34.5642 38.263C36.8106 40.5094 39.8574 41.7714 43.0343 41.7714V41.7714Z" fill="#A3A3A3"/>
</svg>
