<svg width="33" height="42" viewBox="0 0 33 42" fill="none" xmlns="http://www.w3.org/2000/svg">
<path d="M25.4423 5.79916H31.1538C32.1923 5.79916 33 6.61925 33 7.67364V9.02092C33 9.89958 32.3654 10.7197 31.5577 10.8954V38.7197C31.5577 40.5356 30.0577 42 28.2115 42H4.78846C2.94231 42 1.5 40.5356 1.5 38.7197V10.8954C0.692308 10.7197 0 9.89958 0 9.02092V7.67364C0 6.61925 0.865385 5.79916 1.90385 5.79916H7.55769V3.33891C7.55769 1.52301 9 0 10.8462 0H22.1538C24 0 25.4423 1.52301 25.4423 3.33891V5.79916ZM22.1538 2.92887H10.8462C10.5577 2.92887 10.3846 3.1046 10.3846 3.33891V5.79916H22.6154V3.33891C22.6154 3.1046 22.4423 2.92887 22.1538 2.92887ZM5.71154 38.251H27.3462C27.5769 38.251 27.75 37.9582 27.75 37.7239V10.954H5.25V37.7239C5.25 37.9582 5.42308 38.251 5.71154 38.251ZM10.1538 36.0837H9.80769C8.76923 36.0837 7.90385 35.205 7.90385 34.1506V14.9958C7.90385 14 8.76923 13.1799 9.80769 13.1799H10.1538C11.1346 13.1799 12 14 12 14.9958V34.1506C12 35.205 11.1346 36.0837 10.1538 36.0837ZM16.6731 36.0837H16.3846C15.3462 36.0837 14.4808 35.205 14.4808 34.1506V14.9958C14.4808 14 15.3462 13.1799 16.3846 13.1799H16.6731C17.7115 13.1799 18.5769 14 18.5769 14.9958V34.1506C18.5769 35.205 17.7115 36.0837 16.6731 36.0837ZM23.1923 36.0837H22.9038C21.8654 36.0837 21.0577 35.205 21.0577 34.1506V14.9958C21.0577 14 21.8654 13.1799 22.9038 13.1799H23.1923C24.2308 13.1799 25.0962 14 25.0962 14.9958V34.1506C25.0962 35.205 24.2308 36.0837 23.1923 36.0837Z" fill="black"/>
</svg>
